<?xml version="1.0" standalone="no"?>
<!DOCTYPE svg PUBLIC "-//W3C//DTD SVG 20010904//EN"
 "http://www.w3.org/TR/2001/REC-SVG-20010904/DTD/svg10.dtd">
<svg version="1.0" xmlns="http://www.w3.org/2000/svg"
 width="656.000000pt" height="656.000000pt" viewBox="0 0 656.000000 656.000000"
 preserveAspectRatio="xMidYMid meet">
<metadata>
Created by potrace 1.14, written by Peter Selinger 2001-2017
</metadata>
<g transform="translate(0.000000,656.000000) scale(0.100000,-0.100000)"
fill="#000000" stroke="none">
<path d="M3338 6485 c-3 -3 -79 -8 -169 -10 -90 -3 -177 -7 -194 -9 -16 -2
-57 -6 -90 -10 -72 -8 -98 -12 -195 -31 -227 -42 -404 -95 -665 -198 -67 -26
-385 -190 -385 -198 0 -5 -5 -9 -11 -9 -18 0 -272 -173 -352 -240 -51 -42 -67
-56 -132 -114 -183 -165 -336 -335 -467 -521 -31 -44 -61 -84 -65 -90 -47 -58
-219 -376 -271 -500 -36 -86 -93 -234 -96 -250 -1 -5 -12 -41 -24 -80 -21 -68
-44 -155 -44 -165 0 -3 -4 -15 -9 -28 -5 -13 -11 -37 -14 -55 -3 -18 -10 -54
-15 -82 -15 -73 -17 -85 -26 -145 -23 -163 -28 -248 -28 -475 0 -208 4 -297
19 -400 9 -66 15 -100 19 -120 2 -11 7 -40 11 -65 17 -116 93 -391 142 -520
67 -177 173 -404 215 -462 10 -16 16 -28 11 -28 -4 0 -3 -4 2 -8 6 -4 28 -36
49 -72 46 -77 138 -210 178 -260 16 -19 32 -40 36 -45 80 -113 312 -351 457
-470 26 -22 59 -49 71 -60 13 -11 40 -31 59 -45 20 -14 55 -39 78 -56 180
-132 476 -288 722 -381 22 -9 49 -19 60 -23 28 -12 127 -43 145 -46 8 -2 65
-17 125 -33 61 -16 137 -34 170 -40 33 -6 71 -13 85 -16 14 -3 45 -8 70 -10
25 -3 62 -7 82 -11 69 -11 123 -15 283 -20 88 -3 165 -5 170 -5 49 0 269 17
340 27 17 2 50 6 75 9 25 4 52 7 60 9 8 2 33 6 55 10 22 5 87 19 145 33 58 13
112 26 120 28 8 2 44 13 80 25 36 12 70 23 77 24 7 1 16 5 19 9 4 4 13 7 21 7
7 0 59 18 116 41 149 60 152 61 156 59 2 -1 7 2 10 7 3 4 72 42 154 83 81 41
147 78 147 82 0 5 4 8 10 8 24 0 273 173 389 270 156 130 306 281 421 420 25
30 47 57 50 60 3 3 17 21 30 40 13 19 29 40 35 46 27 28 115 161 115 174 0 5
3 10 8 10 4 0 12 9 17 20 6 10 36 63 67 117 46 80 118 224 169 338 24 55 103
273 107 295 0 3 3 12 6 20 3 8 12 42 21 75 9 33 18 67 20 75 10 38 54 260 60
300 3 25 8 61 10 80 16 118 20 199 20 400 0 124 -4 257 -8 295 -4 39 -10 88
-12 111 -5 51 -18 125 -35 209 -6 28 -12 61 -15 75 -2 14 -7 34 -9 45 -3 11
-10 40 -16 65 -36 154 -125 397 -206 568 -24 51 -44 97 -44 102 0 4 -3 10 -7
12 -5 2 -16 19 -25 38 -21 43 -70 131 -81 145 -4 6 -37 55 -74 110 -169 256
-350 459 -613 686 -51 44 -218 168 -275 204 -33 21 -63 43 -67 49 -4 6 -8 8
-8 4 0 -4 -24 9 -52 28 -58 38 -317 170 -388 198 -25 10 -58 24 -75 32 -34 15
-277 96 -345 114 -52 14 -57 15 -150 35 -42 9 -69 15 -92 20 -12 2 -38 7 -58
10 -20 3 -46 7 -57 9 -20 4 -71 10 -183 22 -25 3 -84 6 -132 9 -49 2 -92 6
-97 9 -4 3 -10 3 -13 1z"/>
</g>
</svg>
