<svg width="40" height="41" viewBox="0 0 40 41" fill="none" xmlns="http://www.w3.org/2000/svg">
    <rect y="0.5" width="40" height="40" rx="20" fill="#0E1422"/>
    <path d="M24.4769 11.8486L18.204 8.05515C17.6119 7.69298 16.9388 7.50156 16.2532 7.50037C14.2094 7.50037 12.3348 9.21231 12.3348 11.6051V25.8074L24.4769 18.467C26.9083 16.9947 26.9083 13.32 24.4769 11.8486ZM15.8484 18.948V11.368L22.1163 15.1567L15.8484 18.948Z" fill="white"/>
    <path d="M27.8489 33.4845C27.8489 33.5274 15.9908 33.4661 15.9908 33.4661L14.9434 33.3426C13.2467 33.1441 11.9443 31.6234 12.002 29.8347C12.002 29.7918 12.0057 29.7519 12.0081 29.7104C12.0547 28.9366 12.3261 28.1962 12.7858 27.5885C12.9725 27.3462 13.2009 27.1426 13.4592 26.9883L22.4782 21.5725C24.3414 20.4535 25.8931 20.0621 26.6999 18.0342C26.9974 17.2757 27.126 16.4562 27.0757 15.638L27.0446 15.0866L27.9651 20.4205C28.083 21.3264 27.9013 22.2538 27.4211 23.0169C27.1326 23.4785 26.7475 23.8653 26.2951 24.1479L15.8295 29.3944C15.8191 29.4006 15.809 29.4075 15.7993 29.415C15.5127 29.6293 15.6896 30.1069 16.0403 30.0868L24.7515 30.1404C26.4433 30.0418 27.8526 31.7113 27.8489 33.4845Z" fill="white"/>
</svg>
